inDegrees=no
num_controls=7
num_derivatives=13
num_iterations=168
num_multipliers=7
num_parameters=0
num_slacks=7
num_states=26
objective=5.601960
objective_accelerations=0.813515
objective_balance=0.037774
objective_effort=0.242488
objective_height=4.407478
objective_ligament=0.100706
solver_duration=1838.412034
status=Solve_Succeeded
success=true
DataType=double
version=3
OpenSimVersion=4.4-2022-07-23-0e9fedc
endheader
time	/jointset/ground_pelvis/pelvis_tilt/value	/jointset/ground_pelvis/pelvis_tx/value	/jointset/ground_pelvis/pelvis_ty/value	/jointset/hip_l/hip_flexion_l/value	/jointset/hip_l/hip_adduction_l/value	/jointset/hip_l/hip_rotation_l/value	/jointset/back/lumbar_extension/value	/jointset/patellofemoral_l/patellar_flexion_l/value	/jointset/knee_l/knee_flexion_l/value	/jointset/knee_l/knee_adduction_l/value	/jointset/knee_l/knee_rotation_l/value	/jointset/ankle_l/ankle_angle_l/value	/jointset/subtalar_l/subtalar_angle_l/value	/jointset/ground_pelvis/pelvis_tilt/speed	/jointset/ground_pelvis/pelvis_tx/speed	/jointset/ground_pelvis/pelvis_ty/speed	/jointset/hip_l/hip_flexion_l/speed	/jointset/hip_l/hip_adduction_l/speed	/jointset/hip_l/hip_rotation_l/speed	/jointset/back/lumbar_extension/speed	/jointset/patellofemoral_l/patellar_flexion_l/speed	/jointset/knee_l/knee_flexion_l/speed	/jointset/knee_l/knee_adduction_l/speed	/jointset/knee_l/knee_rotation_l/speed	/jointset/ankle_l/ankle_angle_l/speed	/jointset/subtalar_l/subtalar_angle_l/speed	/forceset/tau_hip_flexion_l	/forceset/tau_hip_adduction_l	/forceset/tau_hip_rotation_l	/forceset/tau_knee_flexion_l	/forceset/tau_ankle_angle_l	/forceset/tau_subtalar_angle_l	/forceset/tau_lumbar_extension	lambda_cid13_p0	lambda_cid13_p1	lambda_cid13_p2	lambda_cid13_p3	lambda_cid13_p4	lambda_cid13_p5	lambda_cid14_p0	/jointset/ground_pelvis/pelvis_tilt/accel	/jointset/ground_pelvis/pelvis_tx/accel	/jointset/ground_pelvis/pelvis_ty/accel	/jointset/hip_l/hip_flexion_l/accel	/jointset/hip_l/hip_adduction_l/accel	/jointset/hip_l/hip_rotation_l/accel	/jointset/back/lumbar_extension/accel	/jointset/patellofemoral_l/patellar_flexion_l/accel	/jointset/knee_l/knee_flexion_l/accel	/jointset/knee_l/knee_adduction_l/accel	/jointset/knee_l/knee_rotation_l/accel	/jointset/ankle_l/ankle_angle_l/accel	/jointset/subtalar_l/subtalar_angle_l/accel	gamma_cid13_p0	gamma_cid13_p1	gamma_cid13_p2	gamma_cid13_p3	gamma_cid13_p4	gamma_cid13_p5	gamma_cid14_p0
0.5	-0.4440118816607134	-0.06504534650660306	0.7562021035825108	1.276797711641826	-0.3560359749407329	-0.03133264309259623	-0.4133477479020928	0.803291037558711	0.8032910375587788	-0.05364978130486111	-0.1745321830643319	0.08208820766033469	0.08920311357703485	-1.358248015882054	-0.3928088200272167	-0.5751594573533938	3.104993139400411	0.06802904973277338	0.4925513783424368	-0.2637487938610049	1.568363531537629	1.568363531537626	0.2485698817925765	-0.0001034154981932983	-0.0559698827107215	0.04975813523317088	-0.1777974672094434	-0.002972553390203763	0.004976776705458915	-0.14812891843603	0.08074476138370987	0.01898449127298009	0.157828149810424	2.015969951820694	-7.673888456274004	-0.1130787832669719	-8.71101830252535	-435.3588444056261	-72.18857941364875	-11.00820433843883	0.6668258477686546	0.7876731311643986	-0.4022302563325201	-2.020945005121154	0.1435378860184111	-0.4964038960180264	1.742098762572636	-1.380370017835713	-1.380370017835709	-0.4781337754891612	0.06513933904635451	-0.197166204633119	0.09668105622583123	-1.633860911507323e-07	-1.079057331815987e-06	7.612718771677722e-07	-1.654784489049495e-07	-5.310919302535511e-07	4.743978296648732e-07	-3.367253341003094e-07
0.51	-0.4575579725509751	-0.06893349396456627	0.7504318988015651	1.307740606559197	-0.3553502952449878	-0.02643303418441312	-0.4158996503474947	0.8189029944305473	0.8189029944306643	-0.05119087066353212	-0.1745321816100922	0.08151827687337454	0.08970349241296613	-1.350793021929473	-0.3847768432153075	-0.578742501492684	3.083166181511165	0.06910428843083034	0.4872598216042553	-0.2466433577276808	1.55380014044485	1.553800140444839	0.2432580073991759	6.356051863351752e-05	-0.05800945909564345	0.05031798160420203	-0.1850127314783425	-0.002596955220327042	0.004258011120568176	-0.1487911142282733	0.08218279143036171	0.01998760085705693	0.1628141776062756	2.315454231689186	-8.017618569820449	-0.2231704392266503	-9.074951742802046	-439.5780130383678	-72.51728789218876	-10.35448472392805	0.8113610733234539	0.8175128939858898	-0.3156055975996702	-2.326576982908674	0.08914007315490688	-0.5624154683202086	1.693016662458889	-1.528408954056809	-1.528408954058055	-0.5510087366920182	-0.01328996218838494	-0.2063654675764653	0.03569078880005906	-2.030773511178307e-07	-6.523219952608613e-07	1.450675697037455e-06	-5.219757737612656e-08	-5.973668252803395e-07	6.169234094783012e-07	-3.649365546658447e-07
0.52	-0.4710242085208434	-0.07274001106685406	0.744630010758252	1.338452630737259	-0.3546539385199726	-0.02158971762472483	-0.4182808483068136	0.8343625003316651	0.8343625003317831	-0.04878373765934026	-0.1745316637347168	0.08092814790013471	0.09020948058485941	-1.342277031804082	-0.3764827488921301	-0.5814961098268482	3.058818991538614	0.07016445558710289	0.4812929086419985	-0.2296078966444958	1.537873337389758	1.537873337389739	0.2382143543887198	-1.312721123898914e-07	-0.06000951996675295	0.05088000242556583	-0.1922279957472498	-0.002221357050424003	0.003539245535227587	-0.1494533100205005	0.08362082147702868	0.02099071044117231	0.1678002054021121	2.615272361791252	-8.362356894544824	-0.3320161306948961	-9.451736530241098	-443.7979021285778	-72.90400940946857	-9.704779178423008	0.8790250823306813	0.8400966334180626	-0.2363430953072931	-2.524991421782467	0.1405235776615326	-0.6314751408330707	1.728103752544779	-1.653052410298542	-1.653052410298411	-0.4244894989002151	0.01900577753185778	-0.1892631018706052	0.09711594629239668	-2.412630784199794e-07	-2.61732346056882e-07	2.11521499517272e-06	5.7664628635905e-08	-6.556255218001045e-07	7.717254093233192e-07	-3.945186995867201e-07
0.53	-0.4844000343721339	-0.07646245034390102	0.7388047246639563	1.368908869168292	-0.353947473435347	-0.01680626945222186	-0.4204922232735162	0.8496560087584573	0.8496560087585074	-0.04642841255166082	-0.1745310412333436	0.08031800230582602	0.09072054133108674	-1.332708583855611	-0.3679785046684513	-0.5834213952874745	3.032026078118725	0.07111836011405134	0.4753221391860664	-0.212704233503559	1.520609420809732	1.520609420809711	0.2328630790364992	0.0001010689122462847	-0.06202507862217678	0.05132003199300393	-0.1995896821788787	-0.001661972926788413	0.002865430684978097	-0.149743581069886	0.08439625697959648	0.02165159638216748	0.1727730673319263	2.67494080568877	-8.53516703853567	-0.4468578500998846	-9.519270442248994	-448.009017784534	-72.94049991436856	-9.060198316407515	1.02264256504635	0.8596016682383324	-0.1498014549130279	-2.816893509797708	0.07103230503433852	-0.5914258976092944	1.665927073746089	-1.795818344404508	-1.795818344404969	-0.5885662125452973	0.002640220813885426	-0.2085181935676436	0.01534641438565483	-2.589950668057492e-07	-5.014475985463914e-08	2.445123714295522e-06	1.16115279798738e-07	-6.681614791376407e-07	8.753161188486057e-07	-4.07572336292765e-07
0.54	-0.4976747981611518	-0.08009904450843199	0.7329643496783597	1.399085088023584	-0.353231827622489	-0.01208483858419719	-0.4225356757130341	0.8647703266069442	0.8647703266069121	-0.04412622412938434	-0.1745300141137278	0.07968753793572546	0.09123558236347173	-1.322064619349498	-0.3593137263889293	-0.5845138880870159	3.00281507639061	0.0720006012339079	0.4688894477446944	-0.1960233912075064	1.50203522172771	1.502035221727685	0.2275870173177883	8.079237364414841e-05	-0.06407327512517551	0.05167605965708747	-0.2069513686105081	-0.001102588803125062	0.002191615834543923	-0.150033852119268	0.08517169248217243	0.02231248232319748	0.1777459292617345	2.734964735856524	-8.710143410614599	-0.5589498977210001	-9.608311022105408	-452.2238324910682	-73.05700012608733	-8.422028848384777	1.094128393859364	0.8722034445867389	-0.06978456309028741	-3.008609083427582	0.1261908962431294	-0.7238595379211025	1.683539583567921	-1.915108910697713	-1.915108910697746	-0.4094467721982793	-0.005289567060360404	-0.1957906713855481	0.08031556562148146	-2.540973866031847e-07	-3.660200931389437e-08	2.404802856638573e-06	1.176850617667123e-07	-6.301105761033487e-07	9.222475284456782e-07	-4.023391128462312e-07
